HIERARCHY
ROOT Hips
{
	OFFSET 0.000000 0.000000 0.000000
	CHANNELS 6 Xposition Yposition Zposition Zrotation Yrotation Xrotation 
	JOINT LHipJoint
	{
		OFFSET 0.000000 0.000000 0.000000
		CHANNELS 3 Zrotation Yrotation Xrotation
		JOINT LeftUpLeg
		{
			OFFSET 1.363060 -1.794630 0.839290
			CHANNELS 3 Zrotation Yrotation Xrotation
			JOINT LeftLeg
			{
				OFFSET 2.448110 -6.726130 0.000000
				CHANNELS 3 Zrotation Yrotation Xrotation
				JOINT LeftFoot
				{
					OFFSET 2.562200 -7.039590 0.000000
					CHANNELS 3 Zrotation Yrotation Xrotation
					JOINT LeftToeBase
					{
						OFFSET 0.157640 -0.433110 2.322550
						CHANNELS 3 Zrotation Yrotation Xrotation
						End Site
						{
							OFFSET 0.000000 0.000000 0.000000
						}
					}
				}
			}
		}
	}
	JOINT RHipJoint
	{
		OFFSET 0.000000 0.000000 0.000000
		CHANNELS 3 Zrotation Yrotation Xrotation
		JOINT RightUpLeg
		{
			OFFSET -1.305520 -1.794630 0.839290
			CHANNELS 3 Zrotation Yrotation Xrotation
			JOINT RightLeg
			{
				OFFSET -2.542530 -6.985550 0.000000
				CHANNELS 3 Zrotation Yrotation Xrotation
				JOINT RightFoot
				{
					OFFSET -2.568260 -7.056230 0.000000
					CHANNELS 3 Zrotation Yrotation Xrotation
					JOINT RightToeBase
					{
						OFFSET -0.164730 -0.452590 2.363150
						CHANNELS 3 Zrotation Yrotation Xrotation
						End Site
						{
							OFFSET 0.000000 0.000000 0.000000
						}
					}
				}
			}
		}
	}
}
MOTION
Frames: 24
Frame Time: 0.008333
-2.550603 16.753051 0.426684 -137.693393 86.181503 -142.518670 -10.528133 1.991508 -0.314465 -21.447949 23.225691 -24.970404 -2.510939 -0.113511 16.352953 2.862720 15.945676 -12.523047 178.608400 0.000000 -8.042300 9.595409 -4.924451 -1.866251 -3.266325 -20.591879 11.246245 0.227472 -2.937371 33.579661 0.030704 7.489837 16.444070 2.951900 0.000000 -88.650300
-2.394655 16.737865 0.395069 -139.091910 86.289566 -143.926405 -10.478227 2.040494 -0.312077 -21.436410 22.901266 -24.705708 -2.487973 -0.043651 17.365680 2.937111 16.193050 -13.205051 178.374700 0.000000 -9.979100 9.806441 -4.891564 -1.809930 -4.004729 -20.423274 10.131446 0.018497 -3.030849 36.081088 -0.056130 8.671017 18.650746 3.772500 0.000000 -89.022400
-2.243600 16.724140 0.363896 -141.405237 86.376748 -146.226403 -10.420322 2.100361 -0.323492 -21.498942 22.614053 -24.511134 -2.471951 0.036517 18.440282 3.020027 16.473193 -13.924053 178.121300 0.000000 -11.471500 10.011998 -4.825943 -1.747928 -4.628453 -20.151101 8.900392 -0.187680 -3.106574 38.667814 -0.181098 9.527532 20.796686 4.522600 0.000001 -88.625900
-2.097841 16.711902 0.332775 -144.546462 86.419638 -149.334106 -10.359470 2.169743 -0.345190 -21.610592 22.353162 -24.356712 -2.462720 0.123802 19.527019 3.104015 16.751536 -14.651383 177.859000 -0.000000 -12.476200 10.206051 -4.729541 -1.686070 -5.119855 -19.791008 7.576295 -0.385052 -3.168581 41.307822 -0.333467 9.968078 22.783698 5.104800 -0.000000 -87.477400
-1.957469 16.701232 0.301179 -148.260343 86.395068 -152.997772 -10.298659 2.245911 -0.374074 -21.745892 22.109250 -24.209393 -2.460656 0.213598 20.576522 3.182451 16.992440 -15.376378 177.594900 -0.000000 -13.105300 10.385792 -4.606960 -1.629332 -5.470352 -19.362563 6.181862 -0.570865 -3.222315 43.970114 -0.503096 9.919141 24.512849 5.423000 0.000000 -85.607400
-1.822390 16.692183 0.268527 -152.153366 86.282845 -156.828480 -10.240017 2.324427 -0.407780 -21.880228 21.874559 -24.035677 -2.465057 0.300698 21.542330 3.248946 17.164899 -16.080678 177.339800 0.000000 -13.381401 10.550653 -4.465327 -1.581400 -5.679199 -18.885485 4.740285 -0.744877 -3.273550 46.618748 -0.682627 9.334724 25.899674 5.402700 -0.000000 -83.192400
-1.692225 16.684803 0.234142 -155.805004 86.070633 -160.409953 -10.185900 2.399264 -0.444587 -21.992712 21.643302 -23.806215 -2.474551 0.379466 22.386114 3.298990 17.246775 -16.752904 177.102900 0.000000 -13.384900 10.700086 -4.313271 -1.544040 -5.750801 -18.374970 3.272817 -0.908160 -3.327512 49.215748 -0.867498 8.209369 26.878285 5.009200 0.000000 -80.404100
-1.566472 16.679169 0.197454 -158.895515 85.756563 -163.426245 -10.139638 2.464610 -0.483012 -22.067457 21.411144 -23.498774 -2.487302 0.445027 23.079397 3.330231 17.227755 -17.384344 176.891500 0.000000 -13.194800 10.832473 -4.158681 -1.517312 -5.693946 -17.840220 1.798946 -1.062187 -3.387709 51.720602 -1.055068 6.583764 27.405383 4.258000 -0.000000 -77.435900
-1.444540 16.675367 0.157912 -161.270906 85.349194 -165.725646 -10.104508 2.516609 -0.521420 -22.094016 21.174476 -23.100834 -2.501498 0.494161 23.604896 3.342924 17.111473 -17.969267 176.710099 0.000000 -12.898000 10.945764 -4.007199 -1.499262 -5.519659 -17.282143 0.336002 -1.208265 -3.455273 54.093105 -1.243246 4.544240 27.460398 3.213200 0.000000 -74.451600
-1.325745 16.673476 0.115072 -162.928497 84.863825 -167.306514 -10.082428 2.553857 -0.558280 -22.067618 20.929836 -22.608265 -2.515597 0.525565 23.956360 3.339625 16.913548 -18.505300 176.559800 -0.000000 -12.588500 11.038690 -3.861724 -1.486356 -5.241121 -16.695385 -1.100741 -1.346813 -3.528819 56.292833 -1.429736 2.214027 27.050639 1.977100 0.000000 -71.574200
-1.209484 16.673623 0.068675 -163.956641 84.318134 -168.257723 -10.073718 2.576745 -0.591829 -21.987640 20.672810 -22.024405 -2.527849 0.539542 24.136795 3.324642 16.660302 -18.988578 176.439500 0.000000 -12.322400 11.111131 -3.723515 -1.473845 -4.873599 -16.071102 -2.499029 -1.476997 -3.605431 58.284586 -1.610884 -0.258570 26.204260 0.672599 -0.000000 -68.831300
-1.095256 16.675915 0.018593 -164.483645 83.728947 -168.706246 -10.077264 2.586650 -0.620719 -21.857929 20.397047 -21.358027 -2.536721 0.537540 24.157220 3.303388 16.382709 -19.420184 176.344400 0.000000 -12.174400 11.163766 -3.592457 -1.456767 -4.432975 -15.398998 -3.848574 -1.596611 -3.681060 60.036587 -1.782164 -2.720980 24.977629 -0.578600 0.000000 -66.261000
-0.982598 16.680449 -0.035158 -164.636583 83.109976 -168.777343 -10.091452 2.585414 -0.643467 -21.684577 20.094922 -20.620660 -2.540402 0.521720 24.033483 3.281233 16.112973 -19.798269 176.269300 0.000000 -12.158100 11.197627 -3.468129 -1.430073 -3.936151 -14.669489 -5.142056 -1.702438 -3.751476 61.524308 -1.937866 -5.031679 23.444048 -1.674400 -0.000000 -63.830800
-0.871258 16.687328 -0.092348 -164.532682 82.470506 -168.586258 -10.114408 2.575014 -0.658974 -21.475599 19.758400 -19.824849 -2.537347 0.494614 23.783839 3.262756 15.878834 -20.121559 176.208800 0.000000 -12.267099 11.213865 -3.349603 -1.389943 -3.399603 -13.877255 -6.374604 -1.790830 -3.812758 62.731317 -2.071883 -7.075461 21.690202 -2.545600 0.000001 -61.497500
-0.761074 16.696564 -0.152618 -164.268107 81.814895 -168.227566 -10.144405 2.557178 -0.666368 -21.239034 19.380167 -18.982780 -2.526423 0.458735 23.427707 3.251204 15.699741 -20.390798 176.157900 0.000000 -12.478900 11.213455 -3.235664 -1.333134 -2.838139 -13.018836 -7.541999 -1.858216 -3.861200 63.645401 -2.179601 -8.778596 19.820190 -3.165000 0.000000 -59.356500
-0.651991 16.708114 -0.215529 -163.922077 81.142918 -167.778833 -10.179915 2.533670 -0.664963 -20.982921 18.953633 -18.104532 -2.507140 0.416452 22.982383 3.247869 15.584060 -20.605349 176.114100 -0.000000 -12.740800 11.197394 -3.125032 -1.258949 -2.266041 -12.099033 -8.643863 -1.902053 -3.894750 64.267746 -2.256385 -10.098941 17.916730 -3.536600 -0.000000 -57.321900
-0.544052 16.721821 -0.280509 -163.555680 80.449913 -167.300610 -10.219753 2.505900 -0.654592 -20.713443 18.475906 -17.198125 -2.479807 0.369735 22.463273 3.251969 15.527385 -20.766244 176.076900 -0.000000 -13.003001 11.166556 -3.016307 -1.167763 -1.694514 -11.125776 -9.680056 -1.920842 -3.912012 64.602607 -2.300796 -11.036630 16.062923 -3.694800 0.000000 -55.450299
-0.437339 16.737439 -0.346998 -163.215243 79.728074 -166.839482 -10.262971 2.475194 -0.635425 -20.435304 17.947394 -16.268585 -2.445486 0.320107 21.882674 3.260972 15.514500 -20.875497 176.048000 0.000000 -13.216900 11.121860 -2.908240 -1.061512 -1.132323 -10.111737 -10.652163 -1.914493 -3.912798 64.661349 -2.313841 -11.622012 14.319958 -3.688399 -0.000000 -53.767100
-0.331958 16.754550 -0.414448 -162.932512 78.967861 -166.428092 -10.308954 2.442780 -0.607972 -20.151201 17.372639 -15.319423 -2.405911 0.268654 21.249713 3.270735 15.520816 -20.934908 176.031600 0.000000 -13.338401 11.064232 -2.799795 -0.943146 -0.585705 -9.072569 -11.562873 -1.884149 -3.897776 64.459874 -2.299168 -11.908436 12.726991 -3.569800 0.000000 -52.285400
-0.227919 16.772709 -0.482376 -162.731367 78.158890 -166.091621 -10.356973 2.409769 -0.572879 -19.863122 16.758895 -14.352466 -2.363366 0.215919 20.571108 3.276497 15.516657 -20.949746 176.031700 0.000000 -13.364000 10.994839 -2.690290 -0.816032 -0.059160 -8.025381 -12.416018 -1.831930 -3.868267 64.017632 -2.262801 -11.964457 11.302094 -3.387199 -0.000000 -51.026700
-0.125207 16.791341 -0.550371 -162.619936 77.291864 -165.839143 -10.406893 2.377350 -0.531160 -19.571367 16.116445 -13.369784 -2.320210 0.162383 19.852140 3.272949 15.470805 -20.921991 176.053800 0.000001 -13.267300 10.914593 -2.579224 -0.684030 0.445261 -6.987645 -13.216418 -1.760445 -3.825930 63.356510 -2.211939 -11.863387 10.039427 -3.178300 0.000000 -49.956399
-0.023780 16.809818 -0.618192 -162.602954 76.359141 -165.676830 -10.458153 2.346543 -0.483383 -19.276939 15.455789 -12.373712 -2.278721 0.108103 19.097661 3.255791 15.356348 -20.857418 176.100900 -0.000000 -13.072300 10.824776 -2.466557 -0.550200 0.924989 -5.975747 -13.970060 -1.672496 -3.772511 62.499481 -2.154501 -11.677655 8.919253 -2.970200 -0.000000 -49.056100
0.076528 16.827581 -0.685679 -162.675167 75.355738 -165.599055 -10.510600 2.318398 -0.430091 -18.980358 14.786899 -11.368280 -2.240795 0.053217 18.312797 3.221653 15.152585 -20.760063 176.175300 0.000000 -12.796200 10.726346 -2.352319 -0.417506 1.379085 -5.004597 -14.683377 -1.570752 -3.709551 61.469887 -2.097980 -11.471368 7.910937 -2.779900 -0.000000 -48.283500
0.175920 16.844069 -0.752833 -162.828910 74.280128 -165.597741 -10.563715 2.293756 -0.371185 -18.683586 14.117589 -10.359374 -2.207721 -0.002209 17.504532 3.169024 14.848937 -20.635099 176.276500 0.000000 -12.474400 10.620502 -2.236913 -0.287724 1.805667 -4.086935 -15.363882 -1.457568 -3.638320 60.289838 -2.048925 -11.296197 6.981869 -2.616000 -0.000001 -47.608700
